<svg id="Layer_1" data-name="Layer 1" xmlns="http://www.w3.org/2000/svg" viewBox="0 0 440 440"><defs><style>.cls-1{fill:#faf1d8;}.cls-2{fill:#9c060b;}</style></defs><path class="cls-1" d="M23,16H418V416H23Z"/><path class="cls-2" d="M38.5,0A38.5,38.5,0,0,0,0,38.5v363A38.5,38.5,0,0,0,38.5,440h363A38.5,38.5,0,0,0,440,401.5h0V38.5A38.5,38.5,0,0,0,401.5,0Zm49,36A50.05,50.05,0,1,1,86,36Zm268,0A50.05,50.05,0,1,1,354,36ZM86,170a50,50,0,1,1-50,50A50,50,0,0,1,86,170Zm268,0a50,50,0,1,1-50,50A50,50,0,0,1,354,170ZM87.47,304A50.05,50.05,0,1,1,86,304Zm268,0a50.05,50.05,0,1,1-1.46,0Z"/></svg>