<?xml version="1.0"?>
<svg xmlns="http://www.w3.org/2000/svg" xmlns:xlink="http://www.w3.org/1999/xlink" xmlns:svgjs="http://svgjs.com/svgjs" version="1.1" width="512" height="512" x="0" y="0" viewBox="0 0 64 64" style="enable-background:new 0 0 512 512" xml:space="preserve"><g><path xmlns="http://www.w3.org/2000/svg" d="m13.398 50.435 17 10.737c.486.307 1.044.46 1.602.46s1.115-.154 1.602-.46l17-10.737c.876-.554 1.398-1.502 1.398-2.538v-18.897h-.005c0-.014.004-.027.004-.041-.015-.371-.234-.703-.569-.862l-18.266-8.692c-.74-.312-1.588-.312-2.37.019l-18.224 8.673c-.335.16-.555.492-.569.862-.001.014.004.027.004.041h-.005v18.897c0 1.036.522 1.984 1.398 2.538zm1.068-1.691c-.292-.185-.466-.501-.466-.847v-17.163l17 9.842v18.609zm35.068-.001-16.534 10.443v-18.61l17-9.842v17.163c0 .346-.174.662-.466.846zm-17.922-27.495c.246-.103.53-.104.734-.019l16.509 7.857-16.855 9.759-16.855-9.758z" fill="#232931" data-original="#000000" style=""/><path xmlns="http://www.w3.org/2000/svg" d="m13 2h2v4h-2z" fill="#232931" data-original="#000000" style=""/><path xmlns="http://www.w3.org/2000/svg" d="m13 8h2v15h-2z" fill="#232931" data-original="#000000" style=""/><path xmlns="http://www.w3.org/2000/svg" d="m18 11h2v7h-2z" fill="#232931" data-original="#000000" style=""/><path xmlns="http://www.w3.org/2000/svg" d="m18 6h2v3h-2z" fill="#232931" data-original="#000000" style=""/><path xmlns="http://www.w3.org/2000/svg" d="m50 2h2v4h-2z" fill="#232931" data-original="#000000" style=""/><path xmlns="http://www.w3.org/2000/svg" d="m50 8h2v15h-2z" fill="#232931" data-original="#000000" style=""/><path xmlns="http://www.w3.org/2000/svg" d="m45 11h2v7h-2z" fill="#232931" data-original="#000000" style=""/><path xmlns="http://www.w3.org/2000/svg" d="m45 6h2v3h-2z" fill="#232931" data-original="#000000" style=""/><path xmlns="http://www.w3.org/2000/svg" d="m28 2h2v2h-2z" fill="#232931" data-original="#000000" style=""/><path xmlns="http://www.w3.org/2000/svg" d="m28 6h2v7h-2z" fill="#232931" data-original="#000000" style=""/><circle xmlns="http://www.w3.org/2000/svg" cx="32" cy="24" r="2" fill="#232931" data-original="#000000" style=""/><circle xmlns="http://www.w3.org/2000/svg" cx="32" cy="35" r="2" fill="#232931" data-original="#000000" style=""/><circle xmlns="http://www.w3.org/2000/svg" cx="21" cy="29" r="2" fill="#232931" data-original="#000000" style=""/><circle xmlns="http://www.w3.org/2000/svg" cx="43" cy="29" r="2" fill="#232931" data-original="#000000" style=""/><circle xmlns="http://www.w3.org/2000/svg" cx="42" cy="44" r="2" fill="#232931" data-original="#000000" style=""/><circle xmlns="http://www.w3.org/2000/svg" cx="17" cy="36" r="2" fill="#232931" data-original="#000000" style=""/><circle xmlns="http://www.w3.org/2000/svg" cx="28" cy="53" r="2" fill="#232931" data-original="#000000" style=""/></g></svg>
