<svg id="Layer_1" data-name="Layer 1" xmlns="http://www.w3.org/2000/svg" viewBox="0 0 380.1 416.89"><defs><style>.cls-1{fill:#9c060b;}.cls-2{fill:#faf1d8;}</style></defs><path class="cls-1" d="M6,416.89l4.18-.16L6.43,413.1C6.3,414.36,6.16,415.62,6,416.89Z"/><path class="cls-2" d="M5.62,220.83C3.44,240.5,4.57,260.3,6,280c.62,8.36,1.23,16.72,1.77,25.09a43.82,43.82,0,0,1,21.28,6.1c7.26,4.26,11.69,10.12,16.28,16.48.33.42.67.85,1,1.28,5.13,6,11,10.94,16.73,16.42,5.23,5.05,10.35,10.18,15.79,15A79,79,0,0,0,87.56,365c9.12,3.67,18.31,7.34,26.25,13.2a162.38,162.38,0,0,1,17.51,14.57c1.42,1.39,2.83,2.76,4.28,4.1a71.94,71.94,0,0,0,6.4,3.33,272.89,272.89,0,0,0,36.52,11.3c-1.06-10.08-2-20.18-3.2-30.25a124,124,0,0,0-4.54-19.41,90,90,0,0,0-5.6-9.08c-11.85-14.25-25.72-27.65-33.48-44.51-3.3-7.18-6.34-13.92-7.56-21.65a169.7,169.7,0,0,1-2.45-24.63c-.1-9.75.69-19.48.74-29.23a42.9,42.9,0,0,1,7.78-24.62c-3.84-2.22-7.6-4.54-11.26-6.86-13.16-8.35-26.94-15.48-40.36-23.37-7.28-4.27-14.49-8.68-21.65-13.15l-1.87-1.17A51,51,0,0,1,49.62,160c-2.45-1.56-4.92-3.07-7.47-4.44-6-2.08-12.09-3.84-18-6.16-3.94-1.56-8.09-3.12-12.08-5a324.6,324.6,0,0,1-7.3,38.83C3.3,189,1.75,194.53.36,200.14,4,206.71,6.34,214.35,5.62,220.83Z"/><path class="cls-2" d="M278.7,94.53c-9-4.71-17.93-9.71-27.14-14-12.21-4.41-25.17-6.89-37.79-9.75-13.11-3-26.27-5.62-39.54-7.75-24.3-2.13-48.51,2.54-72.81,3.31-.71,0-1.41,0-2.12,0,1.79,6.18,3.9,12.27,6.26,18.28q2.13,4.76,4.38,9.45,5,3,10,6c11.82,7,24.17,13.16,35.85,20.39,8.3,5.14,16.41,10.62,25.12,15,1.75.58,3.51,1.08,5.29,1.52,2.06.06,4.12,0,6.18-.12a157.14,157.14,0,0,0,26.49-7.51c19.47-8.79,38.55-18.64,59.59-23.14,5.66-1.21,11.39-2.16,17.12-3.12Q287.07,98.89,278.7,94.53Z"/><path class="cls-2" d="M377.58,291.43c-1.36-22.37-2.22-44.76-2.7-67.17-.39-18.42-.52-36.84-.51-55.26a131.11,131.11,0,0,1-45.14,17.13c-16.84,3.2-33.48,5.49-49.55,11.5-16.83,7.55-33.26,16-51.11,21a170.35,170.35,0,0,1-19.31,4.27,41.37,41.37,0,0,1,1.17,9.78c-.06,11.63-1.19,23.3-.53,34.91l.21.89c1.23,2.17,2.57,4.27,4,6.32,5.46,6.57,11.21,12.89,16.5,19.61,5,6.36,10.26,12.73,14.4,19.73a130.78,130.78,0,0,1,9.92,22.07,126.68,126.68,0,0,1,5.75,23.66,75.5,75.5,0,0,1,24.3-7.83c7.2-1.08,14.13-2,20.95-4.28,7.4-3.48,14.86-7,22.86-8.61a113.92,113.92,0,0,1,15.8-2.05c1.74-1.79,3.59-3.47,5.39-5.21,2.31-4.1,4.2-8.43,6.81-12.37a82.9,82.9,0,0,1,21.46-22.32A55,55,0,0,1,377.58,291.43Z"/><path class="cls-1" d="M189.75,0a34.83,34.83,0,0,0-17.13,4.15L19.86,92.51c-9.57,5.54-9.57,14.29,0,19.83L172.62,200.7c9.57,5.53,24.7,5.53,34.27,0l152.75-88.36c9.57-5.54,9.57-14.29,0-19.83L206.89,4.15A34.87,34.87,0,0,0,189.75,0Zm.93,82.86c17.65.15,31.74,8.76,31.48,19.23-.12,4.93-3.48,9.64-9.35,13.13-12.38,7.46-32.61,7.56-45.19.21s-12.74-19.35-.36-26.81l.36-.21c6.11-3.63,14.42-5.63,23.06-5.55Zm-181,46.22C3.91,128.92,0,133.41,0,141.36V299.05c0,11.05,7.57,24.16,17.14,29.69l146.93,84.85c9.57,5.53,17.14,1.16,17.14-9.9V246c0-11.06-7.57-24.16-17.14-29.69L17.14,131.46a16.09,16.09,0,0,0-7.48-2.39Zm360.78,0a16.1,16.1,0,0,0-7.48,2.38L216,216.31c-9.57,5.53-17.14,18.64-17.14,29.69V403.7c0,11.05,7.57,15.42,17.14,9.89L363,328.75c9.57-5.53,17.14-18.64,17.14-29.69V141.36c0-7.94-3.91-12.43-9.66-12.28ZM23.29,151C34,150.26,47.8,162.26,54.06,177.8a39.24,39.24,0,0,1,3,14.39c0,13.81-10,19.21-22.48,12.05s-22.51-24.16-22.52-38v-.06C12.09,157.28,16.35,151.49,23.29,151Zm221.52,64.66c6.94.48,11.2,6.27,11.18,15.2,0,13.82-10.1,30.82-22.52,38s-22.46,1.78-22.48-12,10-30.81,22.46-38c4-2.32,7.91-3.41,11.36-3.17ZM79.29,244.34c10.74-.75,24.51,11.25,30.76,26.79a39.06,39.06,0,0,1,3.06,14.39c0,13.8-10.1,19.15-22.53,12s-22.46-24.15-22.47-37.94c0-8.93,4.24-14.72,11.18-15.2Zm277.52,29.38c6.94.48,11.2,6.27,11.18,15.2,0,13.82-10.1,30.82-22.52,38S323,328.68,323,314.9s10-30.81,22.46-38c4-2.31,7.91-3.4,11.36-3.16ZM135.29,338.38c10.74-.75,24.52,11.25,30.77,26.79a39.28,39.28,0,0,1,3.05,14.39c0,13.82-10.05,19.21-22.47,12.06s-22.52-24.16-22.53-38v-.06c0-8.93,4.24-14.72,11.18-15.2Z"/></svg>