<svg id="Layer_1" data-name="Layer 1" xmlns="http://www.w3.org/2000/svg" viewBox="0 0 512 512"><defs><style>.cls-1{fill:#9c060b;}.cls-2{fill:#faf1d8;}</style></defs><path class="cls-1" d="M256,0h0C397.39,0,512,114.61,512,256h0c0,141.39-114.61,256-256,256h0C114.61,512,0,397.39,0,256H0C0,114.61,114.61,0,256,0Z"/><path class="cls-1" d="M71.55,270.9c-2.18,19.67-1,39.47.38,59.17.62,8.36,1.23,16.72,1.77,25.09A43.83,43.83,0,0,1,95,361.26c7.26,4.26,11.69,10.12,16.28,16.48l1,1.28c5.13,6,11,10.94,16.73,16.42,5.23,5.05,10.35,10.18,15.79,15a77.19,77.19,0,0,0,8.71,4.63c9.12,3.67,18.31,7.34,26.25,13.2a163.74,163.74,0,0,1,17.51,14.57c1.42,1.39,2.83,2.76,4.28,4.1a70.59,70.59,0,0,0,6.4,3.33,271,271,0,0,0,36.52,11.3c-1.06-10.08-2-20.18-3.2-30.25a124.3,124.3,0,0,0-4.54-19.41,93,93,0,0,0-5.6-9.08c-11.85-14.25-25.72-27.65-33.48-44.51-3.3-7.18-6.34-13.92-7.56-21.65A169.42,169.42,0,0,1,187.62,312c-.1-9.75.69-19.48.74-29.23a42.89,42.89,0,0,1,7.78-24.62c-3.84-2.22-7.6-4.54-11.26-6.86C171.72,243,157.94,235.85,144.52,228c-7.28-4.27-14.49-8.68-21.65-13.15L121,213.64a50.06,50.06,0,0,1-5.45-3.57c-2.45-1.56-4.92-3.07-7.47-4.44-6-2.08-12.09-3.84-18-6.16-3.94-1.56-8.09-3.12-12.08-5a323.86,323.86,0,0,1-7.3,38.83c-1.47,5.77-3,11.3-4.41,16.91C69.93,256.78,72.27,264.42,71.55,270.9Z"/><path class="cls-1" d="M344.63,144.6c-9-4.71-17.93-9.71-27.14-14-12.21-4.41-25.17-6.89-37.79-9.75-13.11-3-26.27-5.62-39.54-7.75-24.3-2.13-48.51,2.54-72.81,3.31h-2.12c1.79,6.18,3.9,12.27,6.26,18.28q2.13,4.77,4.38,9.45l10,6c11.82,7,24.17,13.16,35.85,20.39,8.3,5.14,16.41,10.62,25.12,15,1.75.58,3.51,1.08,5.29,1.52,2.06.06,4.12,0,6.18-.12a156.21,156.21,0,0,0,26.49-7.51c19.47-8.79,38.55-18.64,59.59-23.14,5.66-1.21,11.39-2.16,17.12-3.12Q353,149,344.63,144.6Z"/><path class="cls-1" d="M443.51,341.5c-1.36-22.37-2.22-44.76-2.7-67.17-.39-18.42-.52-36.84-.51-55.26a130.89,130.89,0,0,1-45.14,17.13c-16.84,3.2-33.48,5.49-49.55,11.5-16.83,7.55-33.26,16-51.11,21A168,168,0,0,1,275.19,273a41.4,41.4,0,0,1,1.17,9.78c-.06,11.63-1.19,23.3-.53,34.91l.21.89c1.23,2.17,2.57,4.27,4,6.32,5.46,6.57,11.21,12.89,16.5,19.61,5,6.36,10.26,12.73,14.4,19.73a131.58,131.58,0,0,1,9.92,22.07,126.81,126.81,0,0,1,5.75,23.66,75.71,75.71,0,0,1,24.3-7.83c7.2-1.08,14.13-2,20.95-4.28,7.4-3.48,14.86-7,22.86-8.61a115,115,0,0,1,15.8-2.05c1.74-1.79,3.59-3.47,5.39-5.21,2.31-4.1,4.2-8.43,6.81-12.37a83,83,0,0,1,21.46-22.32A55.68,55.68,0,0,1,443.51,341.5Z"/><path class="cls-2" d="M255.7,59.42a32.86,32.86,0,0,0-16.19,3.93L95.13,146.86c-9,5.23-9,13.5,0,18.74l144.38,83.51c9,5.23,23.34,5.23,32.39,0L416.27,165.6c9-5.24,9-13.51,0-18.74L271.9,63.35A33,33,0,0,0,255.7,59.42Zm.88,78.32c16.68.14,30,8.28,29.75,18.17-.11,4.66-3.29,9.11-8.84,12.41-11.7,7.05-30.82,7.15-42.71.2s-12-18.29-.34-25.34l.34-.2c5.78-3.43,13.63-5.32,21.8-5.24ZM85.51,181.42c-5.46-.15-9.15,4.09-9.15,11.61v149c0,10.44,7.15,22.83,16.2,28.06l138.87,80.19c9,5.23,16.2,1.1,16.2-9.36v-149c0-10.46-7.16-22.84-16.2-28.06L92.56,183.67a15.31,15.31,0,0,0-7.07-2.26Zm341,0a15.34,15.34,0,0,0-7.07,2.25l-138.91,80.2c-9.05,5.22-16.2,17.61-16.2,28.06V441c0,10.45,7.15,14.58,16.2,9.35l138.93-80.18c9.05-5.23,16.2-17.62,16.2-28.07V193c0-7.51-3.69-11.75-9.13-11.61ZM98.37,202.14c10.12-.7,23.17,10.64,29.08,25.33a36.94,36.94,0,0,1,2.84,13.6c0,13.05-9.45,18.15-21.25,11.39s-21.27-22.84-21.28-35.92v0C87.79,208.07,91.81,202.6,98.37,202.14Zm209.37,61.11c6.56.45,10.58,5.93,10.56,14.37,0,13.06-9.54,29.13-21.28,35.91s-21.23,1.68-21.25-11.34,9.45-29.12,21.23-35.91c3.78-2.2,7.48-3.23,10.74-3ZM151.3,290.36c10.15-.71,23.16,10.63,29.07,25.32a36.76,36.76,0,0,1,2.89,13.6c0,13-9.54,18.1-21.29,11.34s-21.23-22.83-21.24-35.86c0-8.44,4-13.91,10.57-14.36Zm262.29,27.77c6.56.45,10.59,5.92,10.57,14.36,0,13.06-9.55,29.13-21.29,35.92s-21.23,1.66-21.23-11.36,9.45-29.12,21.22-35.92a19.37,19.37,0,0,1,10.74-3ZM204.23,379.24c10.15-.71,23.17,10.63,29.08,25.32a37.15,37.15,0,0,1,2.88,13.6c0,13.06-9.5,18.15-21.24,11.4s-21.28-22.84-21.29-35.92v-.06c0-8.44,4-13.91,10.57-14.36Z"/></svg>